<svg width="68" height="68" viewBox="0 0 68 68" fill="none" xmlns="http://www.w3.org/2000/svg">
<path d="M59.6763 13.8223C61.2208 15.8454 62.5284 18.0433 63.5725 20.3719L33.9544 42.4914L21.5762 34.6303V25.173L33.9544 33.0341L59.6763 13.8223Z" fill="#21A038"/>
<path d="M8.94536 33.9627C8.94536 33.5383 8.95557 33.1167 8.976 32.6976L1.47445 32.3252C1.44892 32.8684 1.4336 33.4169 1.4336 33.9703C1.43041 38.2951 2.27005 42.5777 3.90438 46.5727C5.53869 50.568 7.93551 54.1968 10.9573 57.2512L16.2784 51.863C13.9523 49.516 12.107 46.7262 10.8485 43.6543C9.59007 40.5823 8.9433 37.2886 8.94536 33.9627Z" fill="url(#paint0_linear)"/>
<path d="M33.9475 8.62976C34.3662 8.62976 34.7822 8.64529 35.1959 8.66598L35.5712 1.06348C35.0335 1.03761 34.4921 1.02468 33.9475 1.02468C29.6767 1.01941 25.4472 1.86883 21.5015 3.52418C17.5558 5.17953 13.9717 7.6082 10.9551 10.6707L16.2761 16.0615C18.5929 13.7042 21.3468 11.834 24.3795 10.5586C27.4122 9.28319 30.6637 8.62767 33.9475 8.62976Z" fill="url(#paint1_linear)"/>
<path d="M33.9506 59.2948C33.5319 59.2948 33.1156 59.2948 32.6996 59.2612L32.3242 66.8611C32.8638 66.8887 33.406 66.9026 33.9506 66.9026C38.2196 66.907 42.447 66.0571 46.3906 64.4012C50.3342 62.7454 53.9159 60.3164 56.9303 57.2539L51.6195 51.8657C49.3022 54.2218 46.5486 56.091 43.5165 57.3659C40.4844 58.6408 37.2335 59.2964 33.9506 59.2948Z" fill="url(#paint2_linear)"/>
<path d="M48.042 13.05L54.3639 8.32914C48.5856 3.58879 41.3728 1.00833 33.9375 1.02153V8.6292C38.9723 8.62288 43.8903 10.1644 48.042 13.05Z" fill="url(#paint3_linear)"/>
<path d="M66.463 33.9631C66.467 31.984 66.2961 30.0083 65.9522 28.0601L58.9538 33.2853C58.9538 33.5105 58.9538 33.7355 58.9538 33.9631C58.9556 37.5025 58.2232 41.0028 56.8043 44.2371C55.3853 47.4714 53.3113 50.3675 50.7168 52.7377L55.7647 58.39C59.1377 55.3049 61.8331 51.5363 63.6761 47.3284C65.5192 43.1203 66.4686 38.5667 66.463 33.9631Z" fill="#21A038"/>
<path d="M33.9486 59.2951C30.4547 59.2963 26.9995 58.5541 23.8066 57.1166C20.6139 55.6792 17.7547 53.5782 15.4142 50.9502L9.83789 56.0616C12.8826 59.4794 16.6023 62.2106 20.7559 64.0783C24.9095 65.9458 29.4042 66.9081 33.9486 66.9027V59.2951Z" fill="url(#paint4_linear)"/>
<path d="M17.1823 15.1872L12.137 9.53516C8.76299 12.6195 6.06661 16.388 4.2227 20.5961C2.37881 24.8041 1.42857 29.3578 1.43361 33.9619H8.94537C8.94382 30.4227 9.67627 26.9223 11.0952 23.6881C12.5141 20.4539 14.588 17.5577 17.1823 15.1872Z" fill="url(#paint5_linear)"/>
<defs>
<linearGradient id="paint0_linear" x1="12.4766" y1="56.302" x2="4.07735" y2="32.3359" gradientUnits="userSpaceOnUse">
<stop offset="0.14" stop-color="#F1E813"/>
<stop offset="0.3" stop-color="#E6E418"/>
<stop offset="0.58" stop-color="#C9DA26"/>
<stop offset="0.89" stop-color="#A2CC39"/>
</linearGradient>
<linearGradient id="paint1_linear" x1="13.0998" y1="12.0159" x2="34.3075" y2="4.03849" gradientUnits="userSpaceOnUse">
<stop offset="0.06" stop-color="#0FA7DF"/>
<stop offset="0.54" stop-color="#0098F8"/>
<stop offset="0.92" stop-color="#0290EA"/>
</linearGradient>
<linearGradient id="paint2_linear" x1="31.829" y1="62.311" x2="55.7626" y2="56.9741" gradientUnits="userSpaceOnUse">
<stop offset="0.12" stop-color="#A2CC39"/>
<stop offset="0.28" stop-color="#86C239"/>
<stop offset="0.87" stop-color="#219F38"/>
</linearGradient>
<linearGradient id="paint3_linear" x1="32.375" y1="3.5695" x2="52.8572" y2="9.80842" gradientUnits="userSpaceOnUse">
<stop offset="0.06" stop-color="#0290EA"/>
<stop offset="0.79" stop-color="#0C89CA"/>
</linearGradient>
<linearGradient id="paint4_linear" x1="11.7222" y1="55.1355" x2="34.0368" y2="63.3674" gradientUnits="userSpaceOnUse">
<stop offset="0.13" stop-color="#F1E813"/>
<stop offset="0.3" stop-color="#EAE616"/>
<stop offset="0.53" stop-color="#D8DF1F"/>
<stop offset="0.8" stop-color="#BAD52D"/>
<stop offset="0.98" stop-color="#A2CC39"/>
</linearGradient>
<linearGradient id="paint5_linear" x1="4.232" y1="34.8828" x2="13.3655" y2="11.4308" gradientUnits="userSpaceOnUse">
<stop offset="0.07" stop-color="#A2CC39"/>
<stop offset="0.26" stop-color="#81C45E"/>
<stop offset="0.92" stop-color="#0FA7DF"/>
</linearGradient>
</defs>
</svg>
